<svg width="600" height="600" viewBox="0 0 600 600" xmlns="http://www.w3.org/2000/svg">
  <!-- Feature 1: Dual-Zone Pressure Diffuser -->
  <g transform="translate(50, 50)">
    <circle cx="50" cy="50" r="45" fill="white" stroke="#FF6B00" stroke-width="2"/>
    <path d="M30,50 Q50,20 70,50 Q50,80 30,50" fill="none" stroke="#FF6B00" stroke-width="3"/>
    <path d="M25,50 Q50,10 75,50 Q50,90 25,50" fill="none" stroke="#FF6B00" stroke-width="2" stroke-dasharray="3,3"/>
  </g>
  
  <!-- Feature 2: Real-Time Cooking Camera -->
  <g transform="translate(250, 50)">
    <circle cx="50" cy="50" r="45" fill="white" stroke="#FF6B00" stroke-width="2"/>
    <rect x="30" y="35" width="40" height="30" rx="5" fill="none" stroke="#FF6B00" stroke-width="2"/>
    <circle cx="50" cy="50" r="10" fill="none" stroke="#FF6B00" stroke-width="2"/>
    <circle cx="50" cy="50" r="5" fill="#FF6B00"/>
    <line x1="75" y1="30" x2="65" y2="40" stroke="#FF6B00" stroke-width="2"/>
  </g>
  
  <!-- Feature 3: Steam-Resistant Ion Assistant -->
  <g transform="translate(450, 50)">
    <circle cx="50" cy="50" r="45" fill="white" stroke="#FF6B00" stroke-width="2"/>
    <path d="M35,60 Q50,30 65,60" fill="none" stroke="#FF6B00" stroke-width="2"/>
    <path d="M40,65 Q50,45 60,65" fill="none" stroke="#FF6B00" stroke-width="2"/>
    <circle cx="50" cy="45" r="10" fill="none" stroke="#FF6B00" stroke-width="2"/>
    <path d="M40,30 L60,30" stroke="#FF6B00" stroke-width="2"/>
    <path d="M35,35 L65,35" stroke="#FF6B00" stroke-width="2"/>
  </g>
  
  <!-- Feature 4: Maintenance Reminders -->
  <g transform="translate(50, 250)">
    <circle cx="50" cy="50" r="45" fill="white" stroke="#FF6B00" stroke-width="2"/>
    <rect x="30" y="30" width="40" height="40" rx="3" fill="none" stroke="#FF6B00" stroke-width="2"/>
    <line x1="40" y1="45" x2="60" y2="45" stroke="#FF6B00" stroke-width="2"/>
    <line x1="40" y1="55" x2="60" y2="55" stroke="#FF6B00" stroke-width="2"/>
    <line x1="40" y1="65" x2="50" y2="65" stroke="#FF6B00" stroke-width="2"/>
    <circle cx="70" cy="30" r="10" fill="#FF6B00"/>
    <text x="70" y="34" font-family="Arial" font-size="12" font-weight="bold" text-anchor="middle" fill="white">!</text>
  </g>
  
  <!-- Feature 5: Scent Exhaust Diffuser -->
  <g transform="translate(250, 250)">
    <circle cx="50" cy="50" r="45" fill="white" stroke="#FF6B00" stroke-width="2"/>
    <path d="M40,40 Q50,30 60,40" fill="none" stroke="#FF6B00" stroke-width="2"/>
    <path d="M35,50 Q50,40 65,50" fill="none" stroke="#FF6B00" stroke-width="2"/>
    <path d="M40,60 Q50,50 60,60" fill="none" stroke="#FF6B00" stroke-width="2"/>
    <circle cx="50" cy="65" r="10" fill="none" stroke="#FF6B00" stroke-width="2"/>
  </g>
  
  <!-- Feature 6: AI-Powered Cooking Automation -->
  <g transform="translate(450, 250)">
    <circle cx="50" cy="50" r="45" fill="white" stroke="#FF6B00" stroke-width="2"/>
    <circle cx="50" cy="40" r="15" fill="none" stroke="#FF6B00" stroke-width="2"/>
    <line x1="50" y1="55" x2="50" y2="65" stroke="#FF6B00" stroke-width="2"/>
    <line x1="40" y1="75" x2="50" y2="65" stroke="#FF6B00" stroke-width="2"/>
    <line x1="60" y1="75" x2="50" y2="65" stroke="#FF6B00" stroke-width="2"/>
    <path d="M35,30 L45,40 M55,40 L65,30" stroke="#FF6B00" stroke-width="2"/>
  </g>
</svg>